<mxfile host="app.diagrams.net" modified="2023-06-27T19:46:53.386Z" agent="Mozilla/5.0 (X11; Linux x86_64; rv:109.0) Gecko/20100101 Firefox/114.0" etag="YuruTWKEAw8laEiR0a50" version="21.5.0" type="device" pages="4">
  <diagram name="Page-1" id="70gTRhp0qMvcIWpxNRvw">
    <mxGraphModel dx="874" dy="474" grid="1" gridSize="10" guides="1" tooltips="1" connect="1" arrows="1" fold="1" page="1" pageScale="1" pageWidth="850" pageHeight="1100" math="0" shadow="0">
      <root>
        <mxCell id="0" />
        <mxCell id="1" parent="0" />
        <mxCell id="pAP8NNseEVRjvfdCMDFi-1" value="A" style="shape=umlActor;verticalLabelPosition=bottom;verticalAlign=top;html=1;outlineConnect=0;" vertex="1" parent="1">
          <mxGeometry x="110" y="120" width="30" height="60" as="geometry" />
        </mxCell>
        <mxCell id="pAP8NNseEVRjvfdCMDFi-2" value="" style="ellipse;shape=cloud;whiteSpace=wrap;html=1;" vertex="1" parent="1">
          <mxGeometry x="160" y="70" width="120" height="80" as="geometry" />
        </mxCell>
        <mxCell id="pAP8NNseEVRjvfdCMDFi-3" value="B" style="shape=umlActor;verticalLabelPosition=bottom;verticalAlign=top;html=1;outlineConnect=0;" vertex="1" parent="1">
          <mxGeometry x="680" y="110" width="30" height="60" as="geometry" />
        </mxCell>
        <mxCell id="pAP8NNseEVRjvfdCMDFi-4" value="" style="shape=flexArrow;endArrow=classic;html=1;rounded=0;" edge="1" parent="1">
          <mxGeometry width="50" height="50" relative="1" as="geometry">
            <mxPoint x="300" y="120" as="sourcePoint" />
            <mxPoint x="670" y="140" as="targetPoint" />
          </mxGeometry>
        </mxCell>
        <mxCell id="pAP8NNseEVRjvfdCMDFi-5" value="A" style="shape=umlActor;verticalLabelPosition=bottom;verticalAlign=top;html=1;outlineConnect=0;" vertex="1" parent="1">
          <mxGeometry x="110" y="330" width="30" height="60" as="geometry" />
        </mxCell>
        <mxCell id="pAP8NNseEVRjvfdCMDFi-6" value="" style="ellipse;shape=cloud;whiteSpace=wrap;html=1;" vertex="1" parent="1">
          <mxGeometry x="160" y="240" width="120" height="80" as="geometry" />
        </mxCell>
        <mxCell id="pAP8NNseEVRjvfdCMDFi-7" value="B" style="shape=umlActor;verticalLabelPosition=bottom;verticalAlign=top;html=1;outlineConnect=0;" vertex="1" parent="1">
          <mxGeometry x="295" y="330" width="30" height="60" as="geometry" />
        </mxCell>
        <mxCell id="pAP8NNseEVRjvfdCMDFi-10" value="" style="shape=flexArrow;endArrow=classic;startArrow=classic;html=1;rounded=0;" edge="1" parent="1">
          <mxGeometry width="100" height="100" relative="1" as="geometry">
            <mxPoint x="165" y="360" as="sourcePoint" />
            <mxPoint x="275" y="360" as="targetPoint" />
          </mxGeometry>
        </mxCell>
        <mxCell id="pAP8NNseEVRjvfdCMDFi-11" value="HTTP" style="text;html=1;strokeColor=none;fillColor=none;align=center;verticalAlign=middle;whiteSpace=wrap;rounded=0;" vertex="1" parent="1">
          <mxGeometry x="550" y="70" width="60" height="30" as="geometry" />
        </mxCell>
        <mxCell id="pAP8NNseEVRjvfdCMDFi-12" value="Socket" style="text;html=1;strokeColor=none;fillColor=none;align=center;verticalAlign=middle;whiteSpace=wrap;rounded=0;" vertex="1" parent="1">
          <mxGeometry x="295" y="260" width="60" height="30" as="geometry" />
        </mxCell>
        <mxCell id="GFYvXu6LOChOj7KTvCEr-1" value="A" style="shape=umlActor;verticalLabelPosition=bottom;verticalAlign=top;html=1;outlineConnect=0;" vertex="1" parent="1">
          <mxGeometry x="110" y="590" width="30" height="60" as="geometry" />
        </mxCell>
        <mxCell id="GFYvXu6LOChOj7KTvCEr-2" value="" style="ellipse;shape=cloud;whiteSpace=wrap;html=1;" vertex="1" parent="1">
          <mxGeometry x="160" y="540" width="120" height="80" as="geometry" />
        </mxCell>
        <mxCell id="GFYvXu6LOChOj7KTvCEr-3" value="B" style="shape=umlActor;verticalLabelPosition=bottom;verticalAlign=top;html=1;outlineConnect=0;" vertex="1" parent="1">
          <mxGeometry x="680" y="580" width="30" height="60" as="geometry" />
        </mxCell>
        <mxCell id="GFYvXu6LOChOj7KTvCEr-4" value="" style="shape=flexArrow;endArrow=classic;html=1;rounded=0;" edge="1" parent="1">
          <mxGeometry width="50" height="50" relative="1" as="geometry">
            <mxPoint x="300" y="590" as="sourcePoint" />
            <mxPoint x="670" y="610" as="targetPoint" />
          </mxGeometry>
        </mxCell>
        <mxCell id="GFYvXu6LOChOj7KTvCEr-5" value="HTTP" style="text;html=1;strokeColor=none;fillColor=none;align=center;verticalAlign=middle;whiteSpace=wrap;rounded=0;" vertex="1" parent="1">
          <mxGeometry x="550" y="540" width="60" height="30" as="geometry" />
        </mxCell>
        <mxCell id="GFYvXu6LOChOj7KTvCEr-6" value="" style="endArrow=none;dashed=1;html=1;dashPattern=1 3;strokeWidth=2;rounded=0;" edge="1" parent="1">
          <mxGeometry width="50" height="50" relative="1" as="geometry">
            <mxPoint x="40" y="460" as="sourcePoint" />
            <mxPoint x="760" y="460" as="targetPoint" />
          </mxGeometry>
        </mxCell>
        <mxCell id="GFYvXu6LOChOj7KTvCEr-7" value="" style="shape=cylinder3;whiteSpace=wrap;html=1;boundedLbl=1;backgroundOutline=1;size=15;" vertex="1" parent="1">
          <mxGeometry x="700" y="515" width="60" height="80" as="geometry" />
        </mxCell>
      </root>
    </mxGraphModel>
  </diagram>
  <diagram id="FXc_XI6HP8ibuya1faTQ" name="Page-2">
    <mxGraphModel dx="1724" dy="1574" grid="1" gridSize="10" guides="1" tooltips="1" connect="1" arrows="1" fold="1" page="1" pageScale="1" pageWidth="850" pageHeight="1100" math="0" shadow="0">
      <root>
        <mxCell id="0" />
        <mxCell id="1" parent="0" />
        <mxCell id="gW71sQX4tvOwEW2_7hv6-5" value="Storage" style="strokeWidth=2;html=1;shape=mxgraph.flowchart.database;whiteSpace=wrap;" vertex="1" parent="1">
          <mxGeometry x="910" y="940" width="60" height="60" as="geometry" />
        </mxCell>
        <mxCell id="gW71sQX4tvOwEW2_7hv6-8" style="edgeStyle=orthogonalEdgeStyle;rounded=0;orthogonalLoop=1;jettySize=auto;html=1;entryX=0.5;entryY=0;entryDx=0;entryDy=0;entryPerimeter=0;" edge="1" parent="1" source="gW71sQX4tvOwEW2_7hv6-6" target="gW71sQX4tvOwEW2_7hv6-7">
          <mxGeometry relative="1" as="geometry" />
        </mxCell>
        <mxCell id="gW71sQX4tvOwEW2_7hv6-6" value="Cargar la pagina" style="rounded=1;whiteSpace=wrap;html=1;absoluteArcSize=1;arcSize=14;strokeWidth=2;" vertex="1" parent="1">
          <mxGeometry x="190" y="160" width="240" height="40" as="geometry" />
        </mxCell>
        <mxCell id="gW71sQX4tvOwEW2_7hv6-10" style="edgeStyle=orthogonalEdgeStyle;rounded=0;orthogonalLoop=1;jettySize=auto;html=1;entryX=0.5;entryY=0;entryDx=0;entryDy=0;" edge="1" parent="1" source="gW71sQX4tvOwEW2_7hv6-7" target="gW71sQX4tvOwEW2_7hv6-9">
          <mxGeometry relative="1" as="geometry">
            <Array as="points">
              <mxPoint x="435" y="320" />
            </Array>
          </mxGeometry>
        </mxCell>
        <mxCell id="gW71sQX4tvOwEW2_7hv6-21" style="edgeStyle=orthogonalEdgeStyle;rounded=0;orthogonalLoop=1;jettySize=auto;html=1;entryX=0.5;entryY=1;entryDx=0;entryDy=0;" edge="1" parent="1" source="gW71sQX4tvOwEW2_7hv6-7">
          <mxGeometry relative="1" as="geometry">
            <mxPoint x="20" y="200" as="targetPoint" />
          </mxGeometry>
        </mxCell>
        <mxCell id="gW71sQX4tvOwEW2_7hv6-7" value="¿La pagina cargo?" style="strokeWidth=2;html=1;shape=mxgraph.flowchart.decision;whiteSpace=wrap;" vertex="1" parent="1">
          <mxGeometry x="260" y="270" width="100" height="100" as="geometry" />
        </mxCell>
        <mxCell id="gW71sQX4tvOwEW2_7hv6-12" style="edgeStyle=orthogonalEdgeStyle;rounded=0;orthogonalLoop=1;jettySize=auto;html=1;entryX=0.5;entryY=0;entryDx=0;entryDy=0;entryPerimeter=0;" edge="1" parent="1" source="gW71sQX4tvOwEW2_7hv6-9" target="gW71sQX4tvOwEW2_7hv6-11">
          <mxGeometry relative="1" as="geometry" />
        </mxCell>
        <mxCell id="gW71sQX4tvOwEW2_7hv6-9" value="Cargar la imagen" style="rounded=1;whiteSpace=wrap;html=1;absoluteArcSize=1;arcSize=14;strokeWidth=2;" vertex="1" parent="1">
          <mxGeometry x="315" y="430" width="240" height="40" as="geometry" />
        </mxCell>
        <mxCell id="gW71sQX4tvOwEW2_7hv6-31" style="edgeStyle=orthogonalEdgeStyle;rounded=0;orthogonalLoop=1;jettySize=auto;html=1;entryX=0.5;entryY=0;entryDx=0;entryDy=0;entryPerimeter=0;" edge="1" parent="1" source="gW71sQX4tvOwEW2_7hv6-11" target="gW71sQX4tvOwEW2_7hv6-30">
          <mxGeometry relative="1" as="geometry" />
        </mxCell>
        <mxCell id="gW71sQX4tvOwEW2_7hv6-38" style="edgeStyle=orthogonalEdgeStyle;rounded=0;orthogonalLoop=1;jettySize=auto;html=1;entryX=0.5;entryY=0;entryDx=0;entryDy=0;" edge="1" parent="1" source="gW71sQX4tvOwEW2_7hv6-11" target="gW71sQX4tvOwEW2_7hv6-9">
          <mxGeometry relative="1" as="geometry">
            <mxPoint x="190" y="470" as="targetPoint" />
            <Array as="points">
              <mxPoint x="180" y="580" />
              <mxPoint x="180" y="380" />
              <mxPoint x="435" y="380" />
            </Array>
          </mxGeometry>
        </mxCell>
        <mxCell id="gW71sQX4tvOwEW2_7hv6-11" value="¿Cargó la imagen?" style="strokeWidth=2;html=1;shape=mxgraph.flowchart.decision;whiteSpace=wrap;" vertex="1" parent="1">
          <mxGeometry x="385" y="530" width="100" height="100" as="geometry" />
        </mxCell>
        <mxCell id="gW71sQX4tvOwEW2_7hv6-15" style="edgeStyle=orthogonalEdgeStyle;rounded=0;orthogonalLoop=1;jettySize=auto;html=1;" edge="1" parent="1" source="gW71sQX4tvOwEW2_7hv6-14">
          <mxGeometry relative="1" as="geometry">
            <mxPoint x="310" y="160" as="targetPoint" />
          </mxGeometry>
        </mxCell>
        <mxCell id="gW71sQX4tvOwEW2_7hv6-14" value="Cambiar foto de perfil" style="strokeWidth=2;html=1;shape=mxgraph.flowchart.start_2;whiteSpace=wrap;" vertex="1" parent="1">
          <mxGeometry x="260" y="-70" width="100" height="100" as="geometry" />
        </mxCell>
        <mxCell id="gW71sQX4tvOwEW2_7hv6-26" style="edgeStyle=orthogonalEdgeStyle;rounded=0;orthogonalLoop=1;jettySize=auto;html=1;entryX=0.5;entryY=0;entryDx=0;entryDy=0;" edge="1" parent="1" source="gW71sQX4tvOwEW2_7hv6-22" target="gW71sQX4tvOwEW2_7hv6-24">
          <mxGeometry relative="1" as="geometry">
            <Array as="points">
              <mxPoint x="-140" y="150" />
            </Array>
          </mxGeometry>
        </mxCell>
        <mxCell id="gW71sQX4tvOwEW2_7hv6-28" style="edgeStyle=orthogonalEdgeStyle;rounded=0;orthogonalLoop=1;jettySize=auto;html=1;entryX=0;entryY=0.25;entryDx=0;entryDy=0;" edge="1" parent="1" source="gW71sQX4tvOwEW2_7hv6-22" target="gW71sQX4tvOwEW2_7hv6-6">
          <mxGeometry relative="1" as="geometry">
            <Array as="points">
              <mxPoint x="160" y="150" />
              <mxPoint x="160" y="180" />
              <mxPoint x="170" y="180" />
              <mxPoint x="170" y="170" />
            </Array>
          </mxGeometry>
        </mxCell>
        <mxCell id="gW71sQX4tvOwEW2_7hv6-22" value="¿Es 404?" style="strokeWidth=2;html=1;shape=mxgraph.flowchart.decision;whiteSpace=wrap;" vertex="1" parent="1">
          <mxGeometry x="-30" y="100" width="100" height="100" as="geometry" />
        </mxCell>
        <mxCell id="gW71sQX4tvOwEW2_7hv6-24" value="Volver a home" style="rounded=1;whiteSpace=wrap;html=1;absoluteArcSize=1;arcSize=14;strokeWidth=2;" vertex="1" parent="1">
          <mxGeometry x="-260" y="200" width="240" height="40" as="geometry" />
        </mxCell>
        <mxCell id="gW71sQX4tvOwEW2_7hv6-27" value="Si" style="text;html=1;strokeColor=none;fillColor=none;align=center;verticalAlign=middle;whiteSpace=wrap;rounded=0;" vertex="1" parent="1">
          <mxGeometry x="-90" y="110" width="60" height="30" as="geometry" />
        </mxCell>
        <mxCell id="gW71sQX4tvOwEW2_7hv6-29" value="No" style="text;html=1;strokeColor=none;fillColor=none;align=center;verticalAlign=middle;whiteSpace=wrap;rounded=0;" vertex="1" parent="1">
          <mxGeometry x="60" y="110" width="60" height="30" as="geometry" />
        </mxCell>
        <mxCell id="gW71sQX4tvOwEW2_7hv6-36" style="edgeStyle=orthogonalEdgeStyle;rounded=0;orthogonalLoop=1;jettySize=auto;html=1;entryX=0.5;entryY=0;entryDx=0;entryDy=0;entryPerimeter=0;" edge="1" parent="1" source="gW71sQX4tvOwEW2_7hv6-30" target="gW71sQX4tvOwEW2_7hv6-32">
          <mxGeometry relative="1" as="geometry" />
        </mxCell>
        <mxCell id="gW71sQX4tvOwEW2_7hv6-39" style="edgeStyle=orthogonalEdgeStyle;rounded=0;orthogonalLoop=1;jettySize=auto;html=1;entryX=0.5;entryY=0;entryDx=0;entryDy=0;entryPerimeter=0;" edge="1" parent="1" source="gW71sQX4tvOwEW2_7hv6-30" target="gW71sQX4tvOwEW2_7hv6-40">
          <mxGeometry relative="1" as="geometry">
            <mxPoint x="380" y="810" as="targetPoint" />
          </mxGeometry>
        </mxCell>
        <mxCell id="gW71sQX4tvOwEW2_7hv6-30" value="¿Tiene permiso?" style="strokeWidth=2;html=1;shape=mxgraph.flowchart.decision;whiteSpace=wrap;" vertex="1" parent="1">
          <mxGeometry x="555" y="680" width="100" height="100" as="geometry" />
        </mxCell>
        <mxCell id="gW71sQX4tvOwEW2_7hv6-37" style="edgeStyle=orthogonalEdgeStyle;rounded=0;orthogonalLoop=1;jettySize=auto;html=1;" edge="1" parent="1" source="gW71sQX4tvOwEW2_7hv6-32" target="gW71sQX4tvOwEW2_7hv6-5">
          <mxGeometry relative="1" as="geometry" />
        </mxCell>
        <mxCell id="gW71sQX4tvOwEW2_7hv6-45" style="edgeStyle=orthogonalEdgeStyle;rounded=0;orthogonalLoop=1;jettySize=auto;html=1;entryX=0.5;entryY=0;entryDx=0;entryDy=0;" edge="1" parent="1" source="gW71sQX4tvOwEW2_7hv6-32" target="gW71sQX4tvOwEW2_7hv6-44">
          <mxGeometry relative="1" as="geometry">
            <Array as="points">
              <mxPoint x="590" y="850" />
            </Array>
          </mxGeometry>
        </mxCell>
        <mxCell id="gW71sQX4tvOwEW2_7hv6-32" value="¿Lo quiere publicar?" style="strokeWidth=2;html=1;shape=mxgraph.flowchart.decision;whiteSpace=wrap;" vertex="1" parent="1">
          <mxGeometry x="710" y="800" width="100" height="100" as="geometry" />
        </mxCell>
        <mxCell id="gW71sQX4tvOwEW2_7hv6-42" style="edgeStyle=orthogonalEdgeStyle;rounded=0;orthogonalLoop=1;jettySize=auto;html=1;entryX=0;entryY=0.5;entryDx=0;entryDy=0;" edge="1" parent="1" source="gW71sQX4tvOwEW2_7hv6-40" target="gW71sQX4tvOwEW2_7hv6-41">
          <mxGeometry relative="1" as="geometry" />
        </mxCell>
        <mxCell id="gW71sQX4tvOwEW2_7hv6-43" style="edgeStyle=orthogonalEdgeStyle;rounded=0;orthogonalLoop=1;jettySize=auto;html=1;entryX=0.5;entryY=0;entryDx=0;entryDy=0;" edge="1" parent="1" source="gW71sQX4tvOwEW2_7hv6-40" target="gW71sQX4tvOwEW2_7hv6-9">
          <mxGeometry relative="1" as="geometry">
            <mxPoint x="280" y="530" as="targetPoint" />
            <Array as="points">
              <mxPoint x="-40" y="850" />
              <mxPoint x="-40" y="380" />
              <mxPoint x="435" y="380" />
            </Array>
          </mxGeometry>
        </mxCell>
        <mxCell id="gW71sQX4tvOwEW2_7hv6-40" value="¿Es 401?" style="strokeWidth=2;html=1;shape=mxgraph.flowchart.decision;whiteSpace=wrap;" vertex="1" parent="1">
          <mxGeometry x="30" y="800" width="100" height="100" as="geometry" />
        </mxCell>
        <mxCell id="gW71sQX4tvOwEW2_7hv6-41" value="Load unauthorized" style="rounded=1;whiteSpace=wrap;html=1;absoluteArcSize=1;arcSize=14;strokeWidth=2;" vertex="1" parent="1">
          <mxGeometry x="200" y="830" width="240" height="40" as="geometry" />
        </mxCell>
        <mxCell id="gW71sQX4tvOwEW2_7hv6-44" value="Borrar imagen" style="rounded=1;whiteSpace=wrap;html=1;absoluteArcSize=1;arcSize=14;strokeWidth=2;" vertex="1" parent="1">
          <mxGeometry x="470" y="920" width="240" height="40" as="geometry" />
        </mxCell>
      </root>
    </mxGraphModel>
  </diagram>
  <diagram id="KOBxwB1YtxKiCp3TW4b5" name="Page-3">
    <mxGraphModel dx="874" dy="474" grid="1" gridSize="10" guides="1" tooltips="1" connect="1" arrows="1" fold="1" page="1" pageScale="1" pageWidth="850" pageHeight="1100" math="0" shadow="0">
      <root>
        <mxCell id="0" />
        <mxCell id="1" parent="0" />
        <mxCell id="o0E4xT-RmRcir7Ekw8l_-49" value="Procress" style="whiteSpace=wrap;html=1;aspect=fixed;" vertex="1" parent="1">
          <mxGeometry x="680" y="850" width="190" height="190" as="geometry" />
        </mxCell>
        <mxCell id="o0E4xT-RmRcir7Ekw8l_-48" value="Call" style="whiteSpace=wrap;html=1;aspect=fixed;" vertex="1" parent="1">
          <mxGeometry x="10" y="1096" width="190" height="190" as="geometry" />
        </mxCell>
        <mxCell id="o0E4xT-RmRcir7Ekw8l_-47" value="Call" style="whiteSpace=wrap;html=1;aspect=fixed;" vertex="1" parent="1">
          <mxGeometry x="10" y="850" width="190" height="190" as="geometry" />
        </mxCell>
        <mxCell id="o0E4xT-RmRcir7Ekw8l_-4" style="edgeStyle=orthogonalEdgeStyle;rounded=0;orthogonalLoop=1;jettySize=auto;html=1;" edge="1" parent="1" source="o0E4xT-RmRcir7Ekw8l_-1" target="o0E4xT-RmRcir7Ekw8l_-3">
          <mxGeometry relative="1" as="geometry" />
        </mxCell>
        <mxCell id="o0E4xT-RmRcir7Ekw8l_-1" value="API" style="whiteSpace=wrap;html=1;aspect=fixed;" vertex="1" parent="1">
          <mxGeometry x="40" y="74" width="80" height="80" as="geometry" />
        </mxCell>
        <mxCell id="o0E4xT-RmRcir7Ekw8l_-2" value="ML" style="whiteSpace=wrap;html=1;aspect=fixed;" vertex="1" parent="1">
          <mxGeometry x="600" y="74" width="80" height="80" as="geometry" />
        </mxCell>
        <mxCell id="o0E4xT-RmRcir7Ekw8l_-5" style="edgeStyle=orthogonalEdgeStyle;rounded=0;orthogonalLoop=1;jettySize=auto;html=1;entryX=0;entryY=0.5;entryDx=0;entryDy=0;" edge="1" parent="1" source="o0E4xT-RmRcir7Ekw8l_-3" target="o0E4xT-RmRcir7Ekw8l_-2">
          <mxGeometry relative="1" as="geometry" />
        </mxCell>
        <mxCell id="o0E4xT-RmRcir7Ekw8l_-3" value="" style="outlineConnect=0;dashed=0;verticalLabelPosition=bottom;verticalAlign=top;align=center;html=1;shape=mxgraph.aws3.vpc_nat_gateway;fillColor=#F58536;gradientColor=none;" vertex="1" parent="1">
          <mxGeometry x="340" y="78" width="69" height="72" as="geometry" />
        </mxCell>
        <mxCell id="o0E4xT-RmRcir7Ekw8l_-6" value="POST" style="text;html=1;strokeColor=none;fillColor=none;align=center;verticalAlign=middle;whiteSpace=wrap;rounded=0;" vertex="1" parent="1">
          <mxGeometry x="185" y="150" width="60" height="30" as="geometry" />
        </mxCell>
        <mxCell id="o0E4xT-RmRcir7Ekw8l_-7" value="&quot;Oiga, ¿Cuanto es 2+2?&quot;" style="text;html=1;strokeColor=#6F0000;fillColor=#a20025;align=center;verticalAlign=middle;whiteSpace=wrap;rounded=0;fontColor=#ffffff;" vertex="1" parent="1">
          <mxGeometry x="130" y="200" width="170" height="30" as="geometry" />
        </mxCell>
        <mxCell id="o0E4xT-RmRcir7Ekw8l_-9" value="API" style="whiteSpace=wrap;html=1;aspect=fixed;" vertex="1" parent="1">
          <mxGeometry x="40" y="320" width="80" height="80" as="geometry" />
        </mxCell>
        <mxCell id="o0E4xT-RmRcir7Ekw8l_-15" style="edgeStyle=orthogonalEdgeStyle;rounded=0;orthogonalLoop=1;jettySize=auto;html=1;" edge="1" parent="1" source="o0E4xT-RmRcir7Ekw8l_-10" target="o0E4xT-RmRcir7Ekw8l_-12">
          <mxGeometry relative="1" as="geometry" />
        </mxCell>
        <mxCell id="o0E4xT-RmRcir7Ekw8l_-10" value="ML" style="whiteSpace=wrap;html=1;aspect=fixed;" vertex="1" parent="1">
          <mxGeometry x="600" y="320" width="80" height="80" as="geometry" />
        </mxCell>
        <mxCell id="o0E4xT-RmRcir7Ekw8l_-16" style="edgeStyle=orthogonalEdgeStyle;rounded=0;orthogonalLoop=1;jettySize=auto;html=1;entryX=1;entryY=0.5;entryDx=0;entryDy=0;" edge="1" parent="1" source="o0E4xT-RmRcir7Ekw8l_-12" target="o0E4xT-RmRcir7Ekw8l_-9">
          <mxGeometry relative="1" as="geometry" />
        </mxCell>
        <mxCell id="o0E4xT-RmRcir7Ekw8l_-12" value="" style="outlineConnect=0;dashed=0;verticalLabelPosition=bottom;verticalAlign=top;align=center;html=1;shape=mxgraph.aws3.vpc_nat_gateway;fillColor=#F58536;gradientColor=none;rotation=-180;" vertex="1" parent="1">
          <mxGeometry x="320" y="324" width="69" height="72" as="geometry" />
        </mxCell>
        <mxCell id="o0E4xT-RmRcir7Ekw8l_-14" value="Res" style="text;html=1;strokeColor=none;fillColor=none;align=center;verticalAlign=middle;whiteSpace=wrap;rounded=0;" vertex="1" parent="1">
          <mxGeometry x="480" y="250" width="60" height="30" as="geometry" />
        </mxCell>
        <mxCell id="o0E4xT-RmRcir7Ekw8l_-17" value="&quot;Oiga, es 4&quot;" style="text;html=1;strokeColor=#005700;fillColor=#008a00;align=center;verticalAlign=middle;whiteSpace=wrap;rounded=0;fontColor=#ffffff;" vertex="1" parent="1">
          <mxGeometry x="425" y="280" width="170" height="30" as="geometry" />
        </mxCell>
        <mxCell id="o0E4xT-RmRcir7Ekw8l_-32" style="edgeStyle=orthogonalEdgeStyle;rounded=0;orthogonalLoop=1;jettySize=auto;html=1;" edge="1" parent="1" source="o0E4xT-RmRcir7Ekw8l_-19">
          <mxGeometry relative="1" as="geometry">
            <mxPoint x="80" y="770" as="targetPoint" />
          </mxGeometry>
        </mxCell>
        <mxCell id="o0E4xT-RmRcir7Ekw8l_-19" value="API" style="whiteSpace=wrap;html=1;aspect=fixed;" vertex="1" parent="1">
          <mxGeometry x="85" y="470" width="340" height="340" as="geometry" />
        </mxCell>
        <mxCell id="o0E4xT-RmRcir7Ekw8l_-20" value="ML" style="whiteSpace=wrap;html=1;aspect=fixed;fillColor=#a20025;fontColor=#ffffff;strokeColor=#6F0000;" vertex="1" parent="1">
          <mxGeometry x="85" y="730" width="80" height="80" as="geometry" />
        </mxCell>
        <mxCell id="o0E4xT-RmRcir7Ekw8l_-33" style="edgeStyle=orthogonalEdgeStyle;rounded=0;orthogonalLoop=1;jettySize=auto;html=1;entryX=0;entryY=0.5;entryDx=0;entryDy=0;" edge="1" parent="1" source="o0E4xT-RmRcir7Ekw8l_-34" target="o0E4xT-RmRcir7Ekw8l_-35">
          <mxGeometry relative="1" as="geometry">
            <mxPoint x="420" y="1000" as="targetPoint" />
          </mxGeometry>
        </mxCell>
        <mxCell id="o0E4xT-RmRcir7Ekw8l_-34" value="API" style="whiteSpace=wrap;html=1;aspect=fixed;" vertex="1" parent="1">
          <mxGeometry x="120" y="960" width="80" height="80" as="geometry" />
        </mxCell>
        <mxCell id="o0E4xT-RmRcir7Ekw8l_-35" value="ML" style="whiteSpace=wrap;html=1;aspect=fixed;" vertex="1" parent="1">
          <mxGeometry x="680" y="960" width="80" height="80" as="geometry" />
        </mxCell>
        <mxCell id="o0E4xT-RmRcir7Ekw8l_-38" value="POST" style="text;html=1;strokeColor=none;fillColor=none;align=center;verticalAlign=middle;whiteSpace=wrap;rounded=0;" vertex="1" parent="1">
          <mxGeometry x="265" y="1036" width="60" height="30" as="geometry" />
        </mxCell>
        <mxCell id="o0E4xT-RmRcir7Ekw8l_-39" value="&quot;Oiga, ¿Cuanto es 2+2?&quot;" style="text;html=1;strokeColor=#6F0000;fillColor=#a20025;align=center;verticalAlign=middle;whiteSpace=wrap;rounded=0;fontColor=#ffffff;" vertex="1" parent="1">
          <mxGeometry x="210" y="1086" width="170" height="30" as="geometry" />
        </mxCell>
        <mxCell id="o0E4xT-RmRcir7Ekw8l_-40" value="API" style="whiteSpace=wrap;html=1;aspect=fixed;" vertex="1" parent="1">
          <mxGeometry x="120" y="1206" width="80" height="80" as="geometry" />
        </mxCell>
        <mxCell id="o0E4xT-RmRcir7Ekw8l_-42" value="ML" style="whiteSpace=wrap;html=1;aspect=fixed;" vertex="1" parent="1">
          <mxGeometry x="680" y="1206" width="80" height="80" as="geometry" />
        </mxCell>
        <mxCell id="o0E4xT-RmRcir7Ekw8l_-43" style="edgeStyle=orthogonalEdgeStyle;rounded=0;orthogonalLoop=1;jettySize=auto;html=1;entryX=1;entryY=0.5;entryDx=0;entryDy=0;exitX=0;exitY=0.5;exitDx=0;exitDy=0;" edge="1" parent="1" source="o0E4xT-RmRcir7Ekw8l_-42" target="o0E4xT-RmRcir7Ekw8l_-40">
          <mxGeometry relative="1" as="geometry">
            <mxPoint x="400" y="1246" as="sourcePoint" />
          </mxGeometry>
        </mxCell>
        <mxCell id="o0E4xT-RmRcir7Ekw8l_-45" value="Res" style="text;html=1;strokeColor=none;fillColor=none;align=center;verticalAlign=middle;whiteSpace=wrap;rounded=0;" vertex="1" parent="1">
          <mxGeometry x="560" y="1136" width="60" height="30" as="geometry" />
        </mxCell>
        <mxCell id="o0E4xT-RmRcir7Ekw8l_-46" value="&quot;Oiga, es 4&quot;" style="text;html=1;strokeColor=#005700;fillColor=#008a00;align=center;verticalAlign=middle;whiteSpace=wrap;rounded=0;fontColor=#ffffff;" vertex="1" parent="1">
          <mxGeometry x="505" y="1166" width="170" height="30" as="geometry" />
        </mxCell>
      </root>
    </mxGraphModel>
  </diagram>
  <diagram id="hPfg2ggR8owcT0JPKl7I" name="Page-4">
    <mxGraphModel dx="874" dy="474" grid="1" gridSize="10" guides="1" tooltips="1" connect="1" arrows="1" fold="1" page="1" pageScale="1" pageWidth="850" pageHeight="1100" math="0" shadow="0">
      <root>
        <mxCell id="0" />
        <mxCell id="1" parent="0" />
        <mxCell id="g-apialB0lTRO2af7_NI-1" value="Procress" style="whiteSpace=wrap;html=1;aspect=fixed;" vertex="1" parent="1">
          <mxGeometry x="580" y="850" width="190" height="190" as="geometry" />
        </mxCell>
        <mxCell id="g-apialB0lTRO2af7_NI-3" value="Call" style="whiteSpace=wrap;html=1;aspect=fixed;" vertex="1" parent="1">
          <mxGeometry x="10" y="850" width="190" height="190" as="geometry" />
        </mxCell>
        <mxCell id="g-apialB0lTRO2af7_NI-18" style="edgeStyle=orthogonalEdgeStyle;rounded=0;orthogonalLoop=1;jettySize=auto;html=1;entryX=0;entryY=0.5;entryDx=0;entryDy=0;" edge="1" parent="1" source="g-apialB0lTRO2af7_NI-19" target="g-apialB0lTRO2af7_NI-40">
          <mxGeometry relative="1" as="geometry">
            <mxPoint x="95" y="670" as="targetPoint" />
          </mxGeometry>
        </mxCell>
        <mxCell id="g-apialB0lTRO2af7_NI-19" value="API" style="whiteSpace=wrap;html=1;aspect=fixed;" vertex="1" parent="1">
          <mxGeometry x="100" y="370" width="340" height="340" as="geometry" />
        </mxCell>
        <mxCell id="g-apialB0lTRO2af7_NI-21" style="edgeStyle=orthogonalEdgeStyle;rounded=0;orthogonalLoop=1;jettySize=auto;html=1;entryX=0;entryY=0.5;entryDx=0;entryDy=0;" edge="1" parent="1" source="g-apialB0lTRO2af7_NI-22" target="g-apialB0lTRO2af7_NI-23">
          <mxGeometry relative="1" as="geometry">
            <mxPoint x="420" y="1000" as="targetPoint" />
          </mxGeometry>
        </mxCell>
        <mxCell id="g-apialB0lTRO2af7_NI-22" value="API" style="whiteSpace=wrap;html=1;aspect=fixed;" vertex="1" parent="1">
          <mxGeometry x="120" y="960" width="80" height="80" as="geometry" />
        </mxCell>
        <mxCell id="g-apialB0lTRO2af7_NI-23" value="ML" style="whiteSpace=wrap;html=1;aspect=fixed;" vertex="1" parent="1">
          <mxGeometry x="580" y="960" width="80" height="80" as="geometry" />
        </mxCell>
        <mxCell id="g-apialB0lTRO2af7_NI-37" style="edgeStyle=orthogonalEdgeStyle;rounded=0;orthogonalLoop=1;jettySize=auto;html=1;entryX=0;entryY=0.5;entryDx=0;entryDy=0;" edge="1" parent="1" source="g-apialB0lTRO2af7_NI-31" target="g-apialB0lTRO2af7_NI-36">
          <mxGeometry relative="1" as="geometry" />
        </mxCell>
        <mxCell id="g-apialB0lTRO2af7_NI-31" value="Container" style="swimlane;whiteSpace=wrap;html=1;" vertex="1" parent="1">
          <mxGeometry x="10" y="40" width="120" height="130" as="geometry">
            <mxRectangle x="40" y="90" width="100" height="30" as="alternateBounds" />
          </mxGeometry>
        </mxCell>
        <mxCell id="g-apialB0lTRO2af7_NI-5" value="API" style="whiteSpace=wrap;html=1;aspect=fixed;" vertex="1" parent="g-apialB0lTRO2af7_NI-31">
          <mxGeometry x="20" y="34" width="80" height="80" as="geometry" />
        </mxCell>
        <mxCell id="g-apialB0lTRO2af7_NI-33" value="Container" style="swimlane;whiteSpace=wrap;html=1;" vertex="1" parent="1">
          <mxGeometry x="590" y="40" width="120" height="130" as="geometry">
            <mxRectangle x="40" y="90" width="100" height="30" as="alternateBounds" />
          </mxGeometry>
        </mxCell>
        <mxCell id="g-apialB0lTRO2af7_NI-6" value="ML" style="whiteSpace=wrap;html=1;aspect=fixed;fillColor=#0050ef;fontColor=#ffffff;strokeColor=#001DBC;" vertex="1" parent="g-apialB0lTRO2af7_NI-33">
          <mxGeometry x="20" y="31" width="80" height="80" as="geometry" />
        </mxCell>
        <mxCell id="SXFYa9ivCOkEOK8s29J0-3" style="edgeStyle=orthogonalEdgeStyle;rounded=0;orthogonalLoop=1;jettySize=auto;html=1;exitX=1;exitY=0.5;exitDx=0;exitDy=0;entryX=0;entryY=0.5;entryDx=0;entryDy=0;" edge="1" parent="1" source="g-apialB0lTRO2af7_NI-36" target="SXFYa9ivCOkEOK8s29J0-1">
          <mxGeometry relative="1" as="geometry" />
        </mxCell>
        <mxCell id="g-apialB0lTRO2af7_NI-36" value="Network" style="swimlane;whiteSpace=wrap;html=1;" vertex="1" parent="1">
          <mxGeometry x="290" y="35" width="170" height="140" as="geometry" />
        </mxCell>
        <mxCell id="g-apialB0lTRO2af7_NI-8" value="" style="outlineConnect=0;dashed=0;verticalLabelPosition=bottom;verticalAlign=top;align=center;html=1;shape=mxgraph.aws3.vpc_nat_gateway;fillColor=#F58536;gradientColor=none;" vertex="1" parent="g-apialB0lTRO2af7_NI-36">
          <mxGeometry x="50.5" y="36" width="69" height="72" as="geometry" />
        </mxCell>
        <mxCell id="g-apialB0lTRO2af7_NI-40" value="Container_2" style="swimlane;whiteSpace=wrap;html=1;" vertex="1" parent="1">
          <mxGeometry x="100" y="580" width="120" height="130" as="geometry">
            <mxRectangle x="40" y="90" width="100" height="30" as="alternateBounds" />
          </mxGeometry>
        </mxCell>
        <mxCell id="g-apialB0lTRO2af7_NI-41" value="ML" style="whiteSpace=wrap;html=1;aspect=fixed;fillColor=#a20025;fontColor=#ffffff;strokeColor=#6F0000;" vertex="1" parent="g-apialB0lTRO2af7_NI-40">
          <mxGeometry x="20" y="31" width="80" height="80" as="geometry" />
        </mxCell>
        <mxCell id="1xUnpuK1xVxb5GvAH0-A-1" value="localhost:3000" style="text;html=1;strokeColor=none;fillColor=none;align=center;verticalAlign=middle;whiteSpace=wrap;rounded=0;" vertex="1" parent="1">
          <mxGeometry x="590" y="10" width="120" height="30" as="geometry" />
        </mxCell>
        <mxCell id="1xUnpuK1xVxb5GvAH0-A-2" value="localhost:3001" style="text;html=1;strokeColor=none;fillColor=none;align=center;verticalAlign=middle;whiteSpace=wrap;rounded=0;" vertex="1" parent="1">
          <mxGeometry x="590" y="190" width="120" height="30" as="geometry" />
        </mxCell>
        <mxCell id="SXFYa9ivCOkEOK8s29J0-1" value="Container_2" style="swimlane;whiteSpace=wrap;html=1;" vertex="1" parent="1">
          <mxGeometry x="600" y="230" width="120" height="130" as="geometry">
            <mxRectangle x="40" y="90" width="100" height="30" as="alternateBounds" />
          </mxGeometry>
        </mxCell>
        <mxCell id="SXFYa9ivCOkEOK8s29J0-2" value="ML" style="whiteSpace=wrap;html=1;aspect=fixed;fillColor=#a20025;fontColor=#ffffff;strokeColor=#6F0000;" vertex="1" parent="SXFYa9ivCOkEOK8s29J0-1">
          <mxGeometry x="20" y="31" width="80" height="80" as="geometry" />
        </mxCell>
      </root>
    </mxGraphModel>
  </diagram>
</mxfile>
